<?xml version="1.0" encoding="utf-8"?>
<svg xmlns="http://www.w3.org/2000/svg" viewBox="0 0 50 50" width="12" height="12">
  <path d="M41 2C37.145851 2 34 5.1458514 34 9C34 10.842988 34.724355 12.518937 35.896484 13.771484L27.525391 24L15.919922 24C15.430748 20.617539 12.513828 18 9 18C5.1458514 18 2 21.145851 2 25C2 28.854149 5.1458514 32 9 32C12.513828 32 15.430748 29.382461 15.919922 26L27.501953 26L35.535156 36.640625C34.5767 37.838633 34 39.353257 34 41C34 44.854149 37.145851 48 41 48C44.854149 48 48 44.854149 48 41C48 37.145851 44.854149 34 41 34C39.515247 34 38.13907 34.471256 37.003906 35.265625L29.271484 25.025391L37.455078 15.021484C38.496931 15.638103 39.706395 16 41 16C44.854149 16 48 12.854149 48 9C48 5.1458514 44.854149 2 41 2 z M 41 4C43.773268 4 46 6.2267316 46 9C46 11.773268 43.773268 14 41 14C38.226732 14 36 11.773268 36 9C36 6.2267316 38.226732 4 41 4 z M 9 20C11.773268 20 14 22.226732 14 25C14 27.773268 11.773268 30 9 30C6.2267316 30 4 27.773268 4 25C4 22.226732 6.2267316 20 9 20 z M 41 36C43.773268 36 46 38.226732 46 41C46 43.773268 43.773268 46 41 46C38.226732 46 36 43.773268 36 41C36 38.226732 38.226732 36 41 36 z" fill="#5B5B5B" />
</svg>