<svg xmlns="http://www.w3.org/2000/svg" viewBox="0 0 32 32">
  <path d="M16 3C14.894531 3 14 3.894531 14 5C14 5.085938 14.019531 5.167969 14.03125 5.25C10.574219 6.132813 8 9.273438 8 13L8 22C8 22.566406 7.566406 23 7 23L6 23L6 25L13.1875 25C13.074219 25.316406 13 25.648438 13 26C13 27.644531 14.355469 29 16 29C17.644531 29 19 27.644531 19 26C19 25.648438 18.925781 25.316406 18.8125 25L26 25L26 23L25 23C24.433594 23 24 22.566406 24 22L24 13.28125C24 9.523438 21.488281 6.171875 17.96875 5.25C17.980469 5.167969 18 5.085938 18 5C18 3.894531 17.105469 3 16 3 Z M 15.5625 7C15.707031 6.988281 15.851563 7 16 7C16.0625 7 16.125 7 16.1875 7C19.453125 7.097656 22 9.960938 22 13.28125L22 22C22 22.351563 22.074219 22.683594 22.1875 23L9.8125 23C9.925781 22.683594 10 22.351563 10 22L10 13C10 9.824219 12.445313 7.226563 15.5625 7 Z M 16 25C16.5625 25 17 25.4375 17 26C17 26.5625 16.5625 27 16 27C15.4375 27 15 26.5625 15 26C15 25.4375 15.4375 25 16 25Z" fill="#5B5B5B" />
</svg>